<?xml version="1.0" encoding="UTF-8" standalone="no"?>
<!-- Created with Inkscape (http://www.inkscape.org/) -->

<svg
   xmlns:dc="http://purl.org/dc/elements/1.1/"
   xmlns:cc="http://creativecommons.org/ns#"
   xmlns:rdf="http://www.w3.org/1999/02/22-rdf-syntax-ns#"
   xmlns:svg="http://www.w3.org/2000/svg"
   xmlns="http://www.w3.org/2000/svg"
   xmlns:sodipodi="http://sodipodi.sourceforge.net/DTD/sodipodi-0.dtd"
   xmlns:inkscape="http://www.inkscape.org/namespaces/inkscape"
   width="210mm"
   height="297mm"
   viewBox="0 0 210 297"
   version="1.1"
   id="svg8"
   inkscape:version="0.92.4 (5da689c313, 2019-01-14)"
   sodipodi:docname="desenhando.svg">
  <defs
     id="defs2" />
  <sodipodi:namedview
     id="base"
     pagecolor="#ffffff"
     bordercolor="#666666"
     borderopacity="1.0"
     inkscape:pageopacity="0.0"
     inkscape:pageshadow="2"
     inkscape:zoom="0.49497475"
     inkscape:cx="476.34357"
     inkscape:cy="420.2131"
     inkscape:document-units="mm"
     inkscape:current-layer="layer1"
     showgrid="false"
     inkscape:window-width="1600"
     inkscape:window-height="873"
     inkscape:window-x="1600"
     inkscape:window-y="27"
     inkscape:window-maximized="1" />
  <metadata
     id="metadata5">
    <rdf:RDF>
      <cc:Work
         rdf:about="">
        <dc:format>image/svg+xml</dc:format>
        <dc:type
           rdf:resource="http://purl.org/dc/dcmitype/StillImage" />
        <dc:title></dc:title>
      </cc:Work>
    </rdf:RDF>
  </metadata>
  <g
     inkscape:label="Camada 1"
     inkscape:groupmode="layer"
     id="layer1">
    <path
       sodipodi:type="star"
       id="path3733"
       sodipodi:sides="3"
       sodipodi:cx="104.23511"
       sodipodi:cy="238.20071"
       sodipodi:r1="120.27247"
       sodipodi:r2="60.136238"
       sodipodi:arg1="-1.5663519"
       sodipodi:arg2="-0.51915436"
       inkscape:flatsided="false"
       inkscape:rounded="0"
       inkscape:randomized="0"
       d="m 104.76965,117.92943 51.67809,90.43492 51.67808,90.43493 -104.15798,-0.46292 -104.15798722,-0.46293 52.47989422,-89.972 z"
       inkscape:transform-center-x="0.22510196"
       inkscape:transform-center-y="-24.529644"
       style="fill:#87cdde;stroke-width:0.26458332"
       transform="matrix(1.0057176,-8.9075621e-4,7.2678176e-4,0.82058054,0.47325423,52.167683)" />
    <path
       sodipodi:type="star"
       style="fill:#006680;stroke-width:0.26458332"
       id="path3740"
       sodipodi:sides="3"
       sodipodi:cx="113.38256"
       sodipodi:cy="242.87901"
       sodipodi:r1="112.78908"
       sodipodi:r2="56.394539"
       sodipodi:arg1="-1.575645"
       sodipodi:arg2="-0.52844746"
       inkscape:flatsided="false"
       inkscape:rounded="0"
       inkscape:randomized="0"
       d="m 112.83569,130.09126 49.24868,84.35401 49.24869,84.35401 -97.67706,0.47361 -97.67706,0.47361 48.428372,-84.82762 z"
       inkscape:transform-center-x="0.014686083"
       inkscape:transform-center-y="-22.694286"
       transform="matrix(0.82279311,0.00423843,-0.00424991,0.80540583,13.640094,43.590451)" />
    <path
       sodipodi:type="star"
       style="fill:#87cdde;stroke-width:0.26458332"
       id="path3755"
       sodipodi:sides="3"
       sodipodi:cx="111.45139"
       sodipodi:cy="248.62421"
       sodipodi:r1="83.239632"
       sodipodi:r2="0.83239627"
       sodipodi:arg1="0.45414367"
       sodipodi:arg2="1.5013412"
       inkscape:flatsided="false"
       inkscape:rounded="0"
       inkscape:randomized="0"
       d="m 186.25361,285.14085 -74.74445,-35.68625 -69.083211,45.69191 68.277421,-46.88747 -5.02875,-82.67377 6.46703,82.57371 z"
       inkscape:transform-center-x="1.3187636"
       inkscape:transform-center-y="-23.414789"
       transform="matrix(0.9960793,0.08846488,-0.10105683,1.13786,17.332387,-48.918322)" />
    <path
       style="fill:#0088aa;stroke-width:2.02030516"
       d="M 98.883237,1075.2076 C 99.253626,1074.2927 167.27506,958.87483 250.04198,818.72341 369.04333,617.2153 400.9251,564.6226 402.42871,567.3437 c 1.42666,2.58187 209.488,355.83549 290.28746,492.8599 l 9.82836,16.6675 H 661.59581 620.64707 L 509.60446,999.88072 C 448.531,957.53599 397.44916,921.84364 396.08925,920.56441 c -1.94961,-1.83396 -1.85068,-31.37793 0.46777,-139.68729 1.61717,-75.54878 2.83947,-151.45304 2.71624,-168.67614 -0.12324,-17.2231 -2.77081,36.416 -5.88354,119.198 -3.1127,82.782 -5.72249,158.8296 -5.79953,168.99468 L 387.45015,918.87559 265.93007,997.87338 144.41,1076.8711 h -23.1001 c -12.70505,0 -22.797052,-0.7485 -22.426663,-1.6635 z M 400.95207,575.45668 c -0.64492,-1.61166 -1.12365,-1.13294 -1.22059,1.2206 -0.0877,2.12974 0.38976,3.32298 1.06111,2.65165 0.67132,-0.67133 0.74308,-2.41384 0.1594,-3.87225 z"
       id="path3763"
       inkscape:connector-curvature="0"
       transform="scale(0.26458333)" />
  </g>
</svg>
