<?xml version="1.0" standalone="no"?><svg xmlns="http://www.w3.org/2000/svg" viewBox="0 0 1440 320"><path fill="#0099ff" fill-opacity="0.29" d="M0,224L30,197.3C60,171,120,117,180,133.3C240,149,300,235,360,245.3C420,256,480,192,540,176C600,160,660,192,720,218.7C780,245,840,267,900,240C960,213,1020,139,1080,122.7C1140,107,1200,149,1260,149.3C1320,149,1380,107,1410,85.3L1440,64L1440,320L1410,320C1380,320,1320,320,1260,320C1200,320,1140,320,1080,320C1020,320,960,320,900,320C840,320,780,320,720,320C660,320,600,320,540,320C480,320,420,320,360,320C300,320,240,320,180,320C120,320,60,320,30,320L0,320Z"></path></svg>